<svg width="956" height="150" viewBox="0 0 956 150" fill="none" xmlns="http://www.w3.org/2000/svg">
<path d="M244 0C252.837 0 260 7.16344 260 16V55.3477C248.649 57.3315 240 67.6126 240 80C240 92.3873 248.649 102.667 260 104.651V134C260 142.837 252.837 150 244 150H16C7.16344 150 2.09397e-07 142.837 0 134V101.651C1.30099 101.879 2.63698 102 4 102C17.2548 102 28 90.8071 28 77C28 63.1929 17.2548 52 4 52C2.63703 52 1.30094 52.1203 0 52.3477V16C1.41746e-06 7.16345 7.16345 8.05323e-09 16 0H244Z" fill="#E50914"/>
<rect x="35" y="20" width="15" height="15" rx="2" fill="white"/>
<rect x="218" y="20" width="15" height="15" rx="2" fill="white"/>
<rect x="35" y="52" width="15" height="15" rx="2" fill="white"/>
<rect x="218" y="52" width="15" height="15" rx="2" fill="white"/>
<rect x="35" y="84" width="15" height="15" rx="2" fill="white"/>
<rect x="218" y="84" width="15" height="15" rx="2" fill="white"/>
<rect x="35" y="116" width="15" height="15" rx="2" fill="white"/>
<rect x="218" y="116" width="15" height="15" rx="2" fill="white"/>
<path d="M165 75L112.5 44.6891V105.311L165 75Z" fill="white"/>
<rect width="55" height="4" transform="matrix(-0.867092 0.498147 0.498147 0.867092 162.69 76)" fill="#FBBF24"/>
<path d="M336.224 114.344C330.912 114.344 325.984 113.512 321.44 111.848C316.96 110.12 313.056 107.688 309.728 104.552C306.464 101.416 303.904 97.736 302.048 93.512C300.192 89.224 299.264 84.52 299.264 79.4C299.264 74.28 300.192 69.608 302.048 65.384C303.904 61.096 306.464 57.384 309.728 54.248C313.056 51.112 316.96 48.712 321.44 47.048C325.984 45.32 330.912 44.456 336.224 44.456C342.432 44.456 347.968 45.544 352.832 47.72C357.76 49.896 361.856 53.032 365.12 57.128L353.024 68.072C350.848 65.512 348.448 63.56 345.824 62.216C343.264 60.872 340.384 60.2 337.184 60.2C334.432 60.2 331.904 60.648 329.6 61.544C327.296 62.44 325.312 63.752 323.648 65.48C322.048 67.144 320.768 69.16 319.808 71.528C318.912 73.896 318.464 76.52 318.464 79.4C318.464 82.28 318.912 84.904 319.808 87.272C320.768 89.64 322.048 91.688 323.648 93.416C325.312 95.08 327.296 96.36 329.6 97.256C331.904 98.152 334.432 98.6 337.184 98.6C340.384 98.6 343.264 97.928 345.824 96.584C348.448 95.24 350.848 93.288 353.024 90.728L365.12 101.672C361.856 105.704 357.76 108.84 352.832 111.08C347.968 113.256 342.432 114.344 336.224 114.344ZM371.981 113V60.968H390.221V113H371.981ZM381.101 55.208C377.773 55.208 375.085 54.28 373.037 52.424C370.989 50.568 369.965 48.264 369.965 45.512C369.965 42.76 370.989 40.456 373.037 38.6C375.085 36.744 377.773 35.816 381.101 35.816C384.429 35.816 387.117 36.712 389.165 38.504C391.213 40.232 392.237 42.472 392.237 45.224C392.237 48.104 391.213 50.504 389.165 52.424C387.181 54.28 384.493 55.208 381.101 55.208ZM402.075 113V60.968H419.451V75.752L416.091 71.432C418.075 67.656 420.795 64.84 424.251 62.984C427.707 61.064 431.611 60.104 435.963 60.104C439.995 60.104 443.643 60.936 446.907 62.6C450.171 64.2 452.731 66.696 454.587 70.088C456.507 73.48 457.467 77.864 457.467 83.24V113H439.227V86.216C439.227 82.504 438.459 79.816 436.923 78.152C435.451 76.424 433.371 75.56 430.683 75.56C428.763 75.56 427.003 76.008 425.403 76.904C423.803 77.736 422.555 79.048 421.659 80.84C420.763 82.632 420.315 84.968 420.315 87.848V113H402.075ZM496.839 113.864C490.695 113.864 485.319 112.712 480.711 110.408C476.167 108.04 472.615 104.84 470.055 100.808C467.559 96.712 466.311 92.072 466.311 86.888C466.311 81.704 467.527 77.096 469.959 73.064C472.455 68.968 475.879 65.8 480.231 63.56C484.583 61.256 489.479 60.104 494.919 60.104C500.039 60.104 504.711 61.16 508.935 63.272C513.159 65.32 516.519 68.36 519.015 72.392C521.511 76.424 522.759 81.32 522.759 87.08C522.759 87.72 522.727 88.456 522.663 89.288C522.599 90.12 522.535 90.888 522.471 91.592H481.287V81.992H512.775L505.863 84.68C505.927 82.312 505.479 80.264 504.519 78.536C503.623 76.808 502.343 75.464 500.679 74.504C499.079 73.544 497.191 73.064 495.015 73.064C492.839 73.064 490.919 73.544 489.255 74.504C487.655 75.464 486.407 76.84 485.511 78.632C484.615 80.36 484.167 82.408 484.167 84.776V87.56C484.167 90.12 484.679 92.328 485.703 94.184C486.791 96.04 488.327 97.48 490.311 98.504C492.295 99.464 494.663 99.944 497.415 99.944C499.975 99.944 502.151 99.592 503.943 98.888C505.799 98.12 507.623 96.968 509.415 95.432L519.015 105.416C516.519 108.168 513.447 110.28 509.799 111.752C506.151 113.16 501.831 113.864 496.839 113.864ZM531.169 113V60.968H548.545V75.464L545.089 71.336C547.009 67.624 549.633 64.84 552.961 62.984C556.289 61.064 560.001 60.104 564.097 60.104C568.769 60.104 572.865 61.32 576.385 63.752C579.969 66.12 582.369 69.832 583.585 74.888L577.633 73.64C579.489 69.416 582.273 66.12 585.985 63.752C589.761 61.32 594.081 60.104 598.945 60.104C602.977 60.104 606.561 60.936 609.697 62.6C612.897 64.2 615.393 66.696 617.185 70.088C619.041 73.48 619.969 77.864 619.969 83.24V113H601.729V86.216C601.729 82.504 601.025 79.816 599.617 78.152C598.209 76.424 596.289 75.56 593.857 75.56C592.129 75.56 590.561 75.976 589.153 76.808C587.745 77.64 586.657 78.92 585.889 80.648C585.121 82.312 584.737 84.488 584.737 87.176V113H566.497V86.216C566.497 82.504 565.793 79.816 564.385 78.152C563.041 76.424 561.121 75.56 558.625 75.56C556.833 75.56 555.233 75.976 553.825 76.808C552.481 77.64 551.393 78.92 550.561 80.648C549.793 82.312 549.409 84.488 549.409 87.176V113H531.169ZM663.257 113V103.304L662.009 100.904V83.048C662.009 80.168 661.113 77.96 659.321 76.424C657.593 74.824 654.809 74.024 650.969 74.024C648.473 74.024 645.945 74.44 643.385 75.272C640.825 76.04 638.649 77.128 636.857 78.536L630.713 66.152C633.657 64.232 637.177 62.76 641.273 61.736C645.433 60.648 649.561 60.104 653.657 60.104C662.105 60.104 668.633 62.056 673.241 65.96C677.913 69.8 680.249 75.848 680.249 84.104V113H663.257ZM647.897 113.864C643.737 113.864 640.217 113.16 637.337 111.752C634.457 110.344 632.249 108.424 630.713 105.992C629.241 103.56 628.505 100.84 628.505 97.832C628.505 94.632 629.305 91.88 630.905 89.576C632.569 87.208 635.097 85.416 638.489 84.2C641.881 82.92 646.265 82.28 651.641 82.28H663.929V91.784H654.137C651.193 91.784 649.113 92.264 647.897 93.224C646.745 94.184 646.169 95.464 646.169 97.064C646.169 98.664 646.777 99.944 647.993 100.904C649.209 101.864 650.873 102.344 652.985 102.344C654.969 102.344 656.761 101.864 658.361 100.904C660.025 99.88 661.241 98.344 662.009 96.296L664.505 103.016C663.545 106.6 661.657 109.32 658.841 111.176C656.089 112.968 652.441 113.864 647.897 113.864Z" fill="white"/>
<path d="M689.266 113V101.096L728.818 54.152L731.122 60.872H690.13V45.8H748.018V57.704L708.466 104.648L706.162 97.928H749.458V113H689.266ZM782.749 113.864C777.053 113.864 771.997 112.712 767.581 110.408C763.165 108.104 759.677 104.936 757.117 100.904C754.621 96.808 753.373 92.136 753.373 86.888C753.373 81.64 754.621 77 757.117 72.968C759.677 68.936 763.165 65.8 767.581 63.56C771.997 61.256 777.053 60.104 782.749 60.104C788.445 60.104 793.501 61.256 797.917 63.56C802.397 65.8 805.885 68.936 808.381 72.968C810.877 77 812.125 81.64 812.125 86.888C812.125 92.136 810.877 96.808 808.381 100.904C805.885 104.936 802.397 108.104 797.917 110.408C793.501 112.712 788.445 113.864 782.749 113.864ZM782.749 99.368C784.861 99.368 786.717 98.888 788.317 97.928C789.981 96.968 791.293 95.56 792.253 93.704C793.213 91.784 793.693 89.512 793.693 86.888C793.693 84.264 793.213 82.056 792.253 80.264C791.293 78.408 789.981 77 788.317 76.04C786.717 75.08 784.861 74.6 782.749 74.6C780.701 74.6 778.845 75.08 777.181 76.04C775.581 77 774.269 78.408 773.245 80.264C772.285 82.056 771.805 84.264 771.805 86.888C771.805 89.512 772.285 91.784 773.245 93.704C774.269 95.56 775.581 96.968 777.181 97.928C778.845 98.888 780.701 99.368 782.749 99.368ZM820.575 113V60.968H837.951V75.752L834.591 71.432C836.575 67.656 839.295 64.84 842.751 62.984C846.207 61.064 850.111 60.104 854.463 60.104C858.495 60.104 862.143 60.936 865.407 62.6C868.671 64.2 871.231 66.696 873.087 70.088C875.007 73.48 875.967 77.864 875.967 83.24V113H857.727V86.216C857.727 82.504 856.959 79.816 855.423 78.152C853.951 76.424 851.871 75.56 849.183 75.56C847.263 75.56 845.503 76.008 843.903 76.904C842.303 77.736 841.055 79.048 840.159 80.84C839.263 82.632 838.815 84.968 838.815 87.848V113H820.575ZM915.339 113.864C909.195 113.864 903.819 112.712 899.211 110.408C894.667 108.04 891.115 104.84 888.555 100.808C886.059 96.712 884.811 92.072 884.811 86.888C884.811 81.704 886.027 77.096 888.459 73.064C890.955 68.968 894.379 65.8 898.731 63.56C903.083 61.256 907.979 60.104 913.419 60.104C918.539 60.104 923.211 61.16 927.435 63.272C931.659 65.32 935.019 68.36 937.515 72.392C940.011 76.424 941.259 81.32 941.259 87.08C941.259 87.72 941.227 88.456 941.163 89.288C941.099 90.12 941.035 90.888 940.971 91.592H899.787V81.992H931.275L924.363 84.68C924.427 82.312 923.979 80.264 923.019 78.536C922.123 76.808 920.843 75.464 919.179 74.504C917.579 73.544 915.691 73.064 913.515 73.064C911.339 73.064 909.419 73.544 907.755 74.504C906.155 75.464 904.907 76.84 904.011 78.632C903.115 80.36 902.667 82.408 902.667 84.776V87.56C902.667 90.12 903.179 92.328 904.203 94.184C905.291 96.04 906.827 97.48 908.811 98.504C910.795 99.464 913.163 99.944 915.915 99.944C918.475 99.944 920.651 99.592 922.443 98.888C924.299 98.12 926.123 96.968 927.915 95.432L937.515 105.416C935.019 108.168 931.947 110.28 928.299 111.752C924.651 113.16 920.331 113.864 915.339 113.864Z" fill="#E50914"/>
</svg>
